<?xml version="1.0" standalone="no"?>
<!DOCTYPE svg PUBLIC "-//W3C//DTD SVG 20010904//EN"
 "http://www.w3.org/TR/2001/REC-SVG-20010904/DTD/svg10.dtd">
<svg version="1.0" xmlns="http://www.w3.org/2000/svg"
 width="512.000000pt" height="512.000000pt" viewBox="0 0 512.000000 512.000000"
 preserveAspectRatio="xMidYMid meet">
<metadata>
Created by potrace 1.16, written by Peter Selinger 2001-2019
</metadata>
<g transform="translate(0.000000,512.000000) scale(0.100000,-0.100000)"
fill="#000000" stroke="none">
<path d="M2310 4605 c-934 -116 -1662 -833 -1795 -1767 -19 -134 -19 -432 0
-566 55 -386 214 -746 457 -1037 416 -498 1017 -766 1663 -742 244 9 464 53
669 134 91 36 206 90 206 97 0 4 -188 328 -216 373 l-14 22 -81 -34 c-320
-137 -663 -169 -994 -93 -576 133 -1044 584 -1195 1153 -50 192 -65 453 -35
645 78 514 394 953 855 1189 182 93 332 140 530 167 381 50 814 -52 1140 -268
67 -45 100 -70 189 -145 l26 -22 -180 -180 c-98 -99 -177 -182 -175 -185 8 -7
1265 -234 1270 -229 8 8 -225 1263 -235 1263 -5 0 -87 -77 -182 -172 l-172
-171 -58 53 c-418 384 -1082 588 -1673 515z"/>
<path d="M1980 3146 c-185 -52 -299 -217 -300 -433 l0 -63 135 0 135 0 0 33
c0 44 26 142 46 173 48 72 165 72 222 -1 35 -44 38 -98 8 -159 -30 -61 -60
-87 -226 -200 -63 -43 -137 -97 -164 -120 -108 -90 -169 -208 -182 -357 l-7
-69 447 0 446 0 0 130 0 130 -252 0 -253 1 40 34 c22 19 96 73 165 119 208
140 277 232 287 385 13 187 -89 336 -266 392 -73 22 -209 25 -281 5z"/>
<path d="M2860 2805 l-250 -335 0 -125 0 -125 240 0 240 0 0 -135 0 -135 135
0 135 0 0 135 0 135 75 0 75 0 0 120 0 120 -75 0 -75 0 0 340 0 340 -125 0
-126 0 -249 -335z m230 -200 l0 -145 -110 0 -110 0 107 145 c60 79 109 144
111 145 1 0 2 -65 2 -145z"/>
<path d="M4166 2518 c-3 -46 -9 -115 -12 -155 l-6 -71 38 -11 c177 -49 398
-101 404 -94 9 10 27 162 36 306 l6 107 -230 0 -229 0 -7 -82z"/>
<path d="M4058 1978 c-6 -18 -35 -81 -65 -140 -29 -58 -53 -110 -53 -115 1 -8
346 -256 365 -261 10 -2 73 101 123 203 26 53 94 227 90 230 -4 4 -432 115
-442 115 -4 0 -12 -15 -18 -32z"/>
<path d="M3731 1458 c-13 -16 -64 -64 -113 -106 -48 -42 -88 -80 -88 -84 0
-17 223 -388 234 -388 30 0 390 330 375 344 -15 14 -364 259 -373 261 -6 2
-22 -10 -35 -27z"/>
</g>
</svg>
