<?xml version="1.0" standalone="no"?>
<!DOCTYPE svg PUBLIC "-//W3C//DTD SVG 20010904//EN"
 "http://www.w3.org/TR/2001/REC-SVG-20010904/DTD/svg10.dtd">
<svg version="1.0" xmlns="http://www.w3.org/2000/svg"
 width="920.000000pt" height="920.000000pt" viewBox="0 0 920.000000 920.000000"
 preserveAspectRatio="xMidYMid meet">
<metadata>
Created by potrace 1.16, written by Peter Selinger 2001-2019
</metadata>
<g transform="translate(0.000000,920.000000) scale(0.100000,-0.100000)"
fill="#000000" stroke="none">
<path d="M4959 8709 c-81 -12 -145 -39 -293 -123 -248 -142 -346 -170 -596
-170 l-175 0 -178 47 c-197 52 -270 58 -372 32 -124 -33 -301 -150 -377 -250
-43 -57 -55 -87 -102 -264 -20 -74 -56 -176 -80 -227 -91 -191 -281 -430 -421
-528 -33 -24 -111 -70 -174 -102 -62 -32 -131 -75 -153 -93 -55 -47 -102 -124
-133 -214 -56 -167 -69 -306 -39 -420 19 -73 35 -105 115 -233 133 -211 170
-326 172 -534 1 -145 -5 -186 -59 -372 -45 -155 -56 -235 -43 -322 20 -141
127 -351 235 -461 83 -85 151 -116 343 -155 85 -17 185 -44 223 -60 181 -77
364 -254 445 -430 98 -212 113 -238 164 -284 64 -58 179 -115 320 -161 161
-52 241 -67 359 -69 100 -1 109 1 170 31 36 18 103 64 150 103 149 125 311
188 525 206 111 9 214 -9 386 -67 127 -42 157 -49 225 -49 239 1 567 229 648
450 9 25 29 104 45 175 36 157 50 197 101 293 69 128 165 237 270 308 25 17
95 57 155 89 61 32 129 71 151 86 155 105 265 357 266 604 1 139 -15 185 -123
350 -129 199 -161 284 -181 482 -15 138 -2 295 38 493 48 234 39 365 -37 526
-79 167 -188 257 -388 319 -64 21 -159 51 -211 67 -254 81 -445 227 -565 431
-26 45 -72 123 -102 174 -117 199 -268 290 -533 323 -93 11 -91 11 -171 -1z
m-221 -710 c718 -78 1320 -515 1612 -1168 236 -527 225 -1142 -29 -1666 -262
-542 -763 -937 -1352 -1069 -495 -110 -1036 -19 -1466 247 -877 544 -1191
1655 -729 2575 166 330 416 603 726 795 365 225 826 332 1238 286z"/>
<path d="M4355 7740 c-796 -85 -1432 -722 -1525 -1525 -68 -598 202 -1212 691
-1572 444 -327 1033 -420 1563 -247 113 37 304 131 411 203 316 212 561 533
679 891 115 348 114 734 -1 1080 -213 640 -784 1099 -1455 1170 -105 11 -259
11 -363 0z m1265 -975 l165 -165 -740 -740 -740 -740 -405 405 -405 405 168
167 167 167 233 -232 c128 -127 236 -232 241 -232 5 0 263 254 573 565 311
311 568 565 572 565 3 0 80 -74 171 -165z"/>
<path d="M6636 3305 c-474 -340 -902 -517 -1471 -610 -88 -15 -161 -28 -163
-30 -3 -2 372 -872 574 -1330 24 -55 111 -255 193 -445 83 -190 153 -344 157
-343 4 1 49 141 100 310 177 593 303 1018 310 1046 3 15 9 29 13 31 3 2 299
-135 656 -304 358 -169 651 -304 653 -301 1 4 -160 384 -359 846 -482 1124
-519 1209 -527 1216 -4 3 -65 -35 -136 -86z"/>
<path d="M2087 2318 c-246 -546 -445 -993 -443 -995 1 -2 81 34 177 80 384
185 1116 527 1127 527 6 0 13 -8 16 -17 2 -10 25 -85 50 -168 40 -133 264
-885 333 -1117 26 -88 36 -103 46 -71 3 10 40 97 82 193 42 96 119 272 170
390 52 118 218 498 369 844 151 347 273 632 271 634 -2 3 -59 13 -127 23 -593
88 -991 234 -1423 522 -49 33 -115 80 -146 103 l-56 43 -446 -991z"/>
</g>
</svg>
